<svg width="100" height="125" xmlns="http://www.w3.org/2000/svg">

 <g>
  <title>background</title>
  <rect fill="none" id="canvas_background" height="402" width="682" y="-1" x="-1"/>
 </g>
 <g>
  <title>Layer 1</title>
  <path style="fill:#00b3db" id="svg_2" d="m50.482996,10.142905c-19.984,0 -36.184,16.201 -36.184,36.185c0,28.802 36.184,63.815 36.184,63.815s36.184,-35.013 36.184,-63.815c0,-19.984 -16.2,-36.185 -36.184,-36.185zm0,62.588c-14.583,0 -26.404,-11.821 -26.404,-26.403c0,-14.583 11.821,-26.405 26.404,-26.405c14.582,0 26.404,11.821 26.404,26.404c0,14.583 -11.822,26.404 -26.404,26.404zm14.527,-35.021l-1.121,0l0,-3.682c0,-2.826 -2.465,-4.271 -5.178,-4.271l-8.227,0l-0.004,0l-8.227,0c-2.712,0 -5.177,1.445 -5.177,4.271l0,3.682l-1.121,0c-0.713,0 -1.291,0.561 -1.291,1.251l0,6.339c0,0.691 0.578,1.251 1.291,1.251l1.121,0l0,10.279l1.354,0l0,2.789c0,0.98 0.82,1.775 1.832,1.775l2.498,0c1.012,0 1.833,-0.795 1.833,-1.775l0,-2.789c1.703,0 10.005,0 11.708,0l0,2.789c0,0.98 0.82,1.775 1.832,1.775l2.498,0c1.012,0 1.832,-0.795 1.832,-1.775l0,-2.789l1.426,0l0,-10.279l1.121,0c0.713,0 1.291,-0.56 1.291,-1.251l0,-6.339c0,-0.69 -0.578,-1.251 -1.291,-1.251zm-23.842,16.593c-1.19,0 -2.156,-0.936 -2.156,-2.09s0.966,-2.09 2.156,-2.09c1.191,0 2.157,0.936 2.157,2.09s-0.966,2.09 -2.157,2.09zm7.776,-7.469l-9.59,0l0,-11.118l9.59,0l0,11.118zm3.078,0l0,-11.118l9.59,0l0,11.118l-9.59,0zm7.775,7.469c-1.191,0 -2.156,-0.936 -2.156,-2.09s0.965,-2.09 2.156,-2.09s2.156,0.936 2.156,2.09s-0.964,2.09 -2.156,2.09z"/>
 </g>
</svg>